<svg width="34" height="32" viewBox="0 0 34 32" fill="none" xmlns="http://www.w3.org/2000/svg">
<path d="M30.3333 18.6667V30.3333C30.3333 30.7754 30.1577 31.1993 29.8452 31.5119C29.5326 31.8244 29.1087 32 28.6667 32H5.33333C4.8913 32 4.46738 31.8244 4.15482 31.5119C3.84226 31.1993 3.66666 30.7754 3.66666 30.3333V18.6667H30.3333ZM21.1667 0.33334C22.1511 0.333003 23.1196 0.581799 23.9819 1.05656C24.8443 1.53131 25.5725 2.21659 26.0987 3.04856C26.6249 3.88054 26.932 4.83214 26.9914 5.81476C27.0508 6.79738 26.8605 7.77905 26.4383 8.66834L32 8.66667C32.442 8.66667 32.8659 8.84227 33.1785 9.15483C33.4911 9.46739 33.6667 9.89131 33.6667 10.3333V15.3333C33.6667 15.7754 33.4911 16.1993 33.1785 16.5119C32.8659 16.8244 32.442 17 32 17H1.99999C1.55797 17 1.13404 16.8244 0.821484 16.5119C0.508923 16.1993 0.333328 15.7754 0.333328 15.3333V10.3333C0.333328 9.89131 0.508923 9.46739 0.821484 9.15483C1.13404 8.84227 1.55797 8.66667 1.99999 8.66667L7.56166 8.66834C6.96792 7.42113 6.83604 6.00368 7.1895 4.66834C7.54295 3.333 8.35881 2.16641 9.49183 1.37626C10.6248 0.586109 12.0015 0.223665 13.3767 0.353452C14.7519 0.48324 16.0365 1.09684 17.0017 2.08501C17.5434 1.52922 18.1911 1.0878 18.9066 0.786917C19.622 0.486031 20.3905 0.331793 21.1667 0.33334ZM12.8333 3.66667C12.1913 3.66699 11.574 3.9143 11.1094 4.35736C10.6447 4.80041 10.3683 5.40524 10.3375 6.04653C10.3066 6.68782 10.5236 7.31639 10.9436 7.80201C11.3636 8.28763 11.9543 8.59305 12.5933 8.65501L12.8333 8.66667H15.3333V6.16667C15.3333 5.5452 15.1018 4.94602 14.684 4.48597C14.2661 4.02593 13.6919 3.738 13.0733 3.67834L12.8333 3.66667ZM21.1667 3.66667L20.9267 3.67834C20.349 3.73369 19.8085 3.9883 19.398 4.39852C18.9875 4.80874 18.7324 5.34901 18.6767 5.92667L18.6667 6.16667V8.66667H21.1667L21.4067 8.65501C22.025 8.59506 22.5989 8.307 23.0165 7.84699C23.4341 7.38697 23.6654 6.78795 23.6654 6.16667C23.6654 5.5454 23.4341 4.94638 23.0165 4.48636C22.5989 4.02634 22.025 3.73829 21.4067 3.67834L21.1667 3.66667Z" fill="#ECB559"/>
</svg>
