<svg width="26" height="26" viewBox="0 0 26 26" fill="none" xmlns="http://www.w3.org/2000/svg">
<path d="M13 25.5C6.09621 25.5 0.499954 19.9038 0.499954 13C0.499954 6.09625 6.09621 0.5 13 0.5C19.9037 0.5 25.5 6.09625 25.5 13C25.5 19.9038 19.9037 25.5 13 25.5ZM13 23C15.6521 23 18.1957 21.9464 20.071 20.0711C21.9464 18.1957 23 15.6522 23 13C23 10.3478 21.9464 7.8043 20.071 5.92893C18.1957 4.05357 15.6521 3 13 3C10.3478 3 7.80425 4.05357 5.92889 5.92893C4.05352 7.8043 2.99995 10.3478 2.99995 13C2.99995 15.6522 4.05352 18.1957 5.92889 20.0711C7.80425 21.9464 10.3478 23 13 23ZM14.25 13H19.25V15.5H11.75V6.75H14.25V13Z" fill="#00B533"/>
</svg>
