<svg width="24" height="24" viewBox="0 0 24 24" fill="none" xmlns="http://www.w3.org/2000/svg">
<path d="M18.875 23.25C17.7147 23.25 16.6019 22.7891 15.7814 21.9686C14.9609 21.1481 14.5 20.0353 14.5 18.875C14.5 17.7147 14.9609 16.6019 15.7814 15.7814C16.6019 14.9609 17.7147 14.5 18.875 14.5C20.0353 14.5 21.1481 14.9609 21.9686 15.7814C22.7891 16.6019 23.25 17.7147 23.25 18.875C23.25 20.0353 22.7891 21.1481 21.9686 21.9686C21.1481 22.7891 20.0353 23.25 18.875 23.25ZM5.125 9.5C4.55047 9.5 3.98156 9.38684 3.45076 9.16697C2.91996 8.94711 2.43766 8.62485 2.03141 8.21859C1.62515 7.81234 1.30289 7.33004 1.08303 6.79924C0.863163 6.26844 0.75 5.69953 0.75 5.125C0.75 4.55047 0.863163 3.98156 1.08303 3.45076C1.30289 2.91996 1.62515 2.43766 2.03141 2.03141C2.43766 1.62515 2.91996 1.30289 3.45076 1.08303C3.98156 0.863163 4.55047 0.75 5.125 0.75C6.28532 0.75 7.39812 1.21094 8.21859 2.03141C9.03906 2.85188 9.5 3.96468 9.5 5.125C9.5 6.28532 9.03906 7.39812 8.21859 8.21859C7.39812 9.03906 6.28532 9.5 5.125 9.5ZM20.8387 1.39375L22.6063 3.16125L3.1625 22.6063L1.395 20.8387L20.8375 1.39375H20.8387Z" fill="#ECB559"/>
</svg>
