<svg width="28" height="28" viewBox="0 0 28 28" fill="none" xmlns="http://www.w3.org/2000/svg">
<path d="M23.9225 8.99988H25.25C25.913 8.99988 26.5489 9.26327 27.0178 9.73211C27.4866 10.2009 27.75 10.8368 27.75 11.4999V16.4999C27.75 17.1629 27.4866 17.7988 27.0178 18.2676C26.5489 18.7365 25.913 18.9999 25.25 18.9999H23.9225C23.6178 21.4165 22.4416 23.6389 20.6147 25.2499C18.7878 26.8609 16.4358 27.7498 14 27.7499V25.2499C15.9891 25.2499 17.8968 24.4597 19.3033 23.0532C20.7098 21.6467 21.5 19.739 21.5 17.7499V10.2499C21.5 8.26075 20.7098 6.3531 19.3033 4.94657C17.8968 3.54005 15.9891 2.74988 14 2.74988C12.0109 2.74988 10.1032 3.54005 8.6967 4.94657C7.29018 6.3531 6.5 8.26075 6.5 10.2499V18.9999H2.75C2.08696 18.9999 1.45107 18.7365 0.982233 18.2676C0.513392 17.7988 0.25 17.1629 0.25 16.4999V11.4999C0.25 10.8368 0.513392 10.2009 0.982233 9.73211C1.45107 9.26327 2.08696 8.99988 2.75 8.99988H4.0775C4.38254 6.58349 5.55885 4.36147 7.38572 2.75072C9.21258 1.13997 11.5644 0.251221 14 0.251221C16.4356 0.251221 18.7874 1.13997 20.6143 2.75072C22.4411 4.36147 23.6175 6.58349 23.9225 8.99988ZM2.75 11.4999V16.4999H4V11.4999H2.75ZM24 11.4999V16.4999H25.25V11.4999H24ZM8.7 18.7311L10.025 16.6111C11.2163 17.3574 12.5942 17.7521 14 17.7499C15.4058 17.7521 16.7837 17.3574 17.975 16.6111L19.3 18.7311C17.7116 19.7263 15.8744 20.2528 14 20.2499C12.1256 20.2528 10.2884 19.7263 8.7 18.7311Z" fill="#00B533"/>
</svg>
